<?xml version="1.0" standalone="no"?>
<!DOCTYPE svg PUBLIC "-//W3C//DTD SVG 20010904//EN"
 "http://www.w3.org/TR/2001/REC-SVG-20010904/DTD/svg10.dtd">
<svg version="1.0" xmlns="http://www.w3.org/2000/svg"
 width="197.000000pt" height="197.000000pt" viewBox="0 0 197.000000 197.000000"
 preserveAspectRatio="xMidYMid meet">
<metadata>
Created by potrace 1.11, written by Peter Selinger 2001-2013
</metadata>
<g transform="translate(0.000000,197.000000) scale(0.100000,-0.100000)"
fill="#000000" stroke="none">
<path d="M630 1468 c-40 -20 -94 -98 -72 -106 6 -2 8 -10 5 -18 -6 -17 -50
-19 -55 -3 -6 17 -41 3 -56 -22 -18 -28 -3 -39 52 -39 l38 0 -7 -65 c-3 -35
-8 -74 -10 -87 -2 -13 -6 -54 -10 -91 -3 -37 -8 -77 -10 -89 -18 -92 -25 -252
-13 -295 10 -37 83 -117 98 -108 4 3 10 0 12 -6 2 -6 27 -14 56 -17 51 -4 52
-5 52 -37 0 -19 8 -39 20 -50 15 -13 20 -31 20 -67 l0 -48 -50 0 c-27 0 -50
-4 -50 -8 0 -5 34 -9 75 -9 41 0 75 4 75 9 0 4 -7 8 -15 8 -12 0 -15 13 -15
55 0 40 4 55 14 55 16 0 26 21 26 56 0 20 5 24 30 24 27 0 30 -3 30 -30 0 -19
7 -34 20 -42 16 -10 20 -24 20 -65 0 -52 0 -53 -30 -53 -16 0 -30 -4 -30 -8 0
-5 29 -9 65 -9 36 0 68 4 71 9 3 4 -9 8 -25 8 -30 0 -31 1 -31 49 0 37 5 52
20 62 11 8 21 25 23 39 l4 25 119 0 c102 0 119 2 117 16 -2 11 5 15 30 12 17
-1 87 -5 155 -9 l122 -6 0 35 c0 20 4 38 8 41 7 4 8 28 3 80 -1 4 -10 6 -20 3
-16 -4 -20 3 -26 40 l-7 45 -65 -7 c-36 -4 -76 -10 -88 -15 -13 -5 -25 -7 -28
-4 -2 3 -24 0 -48 -5 -24 -5 -66 -12 -94 -16 -27 -3 -60 -8 -71 -11 -12 -3
-25 -1 -29 5 -3 6 -12 8 -18 5 -7 -4 -9 -4 -5 1 8 8 -31 57 -117 150 -26 28
-54 60 -62 72 -8 13 -20 20 -26 16 -5 -3 -7 -1 -4 4 4 6 -2 18 -12 27 -19 18
-21 51 -7 131 9 53 19 168 20 232 1 59 -1 65 -36 99 -30 30 -45 37 -85 40 -26
2 -59 -2 -73 -8z"/>
</g>
</svg>
